<svg width="19" height="18" viewBox="0 0 19 18" fill="none" xmlns="http://www.w3.org/2000/svg">
<g clip-path="url(#clip0_255_15173)">
<path d="M9.67707 1.08984C9.55827 1.08984 9.45852 1.14742 9.393 1.23085C9.3876 1.23766 9.37836 1.23999 9.37332 1.24748L4.33332 8.73958C4.3272 8.74843 4.3264 8.75965 4.32136 8.76884C4.30984 8.7903 4.30219 8.81153 4.29535 8.83469C4.28959 8.85478 4.28449 8.87445 4.28269 8.89522C4.28089 8.91838 4.28297 8.94056 4.28621 8.96439C4.28801 8.97768 4.28401 8.99136 4.28761 9.0043C4.29013 9.0135 4.29703 9.02072 4.30027 9.02958C4.30351 9.03843 4.30228 9.04799 4.3066 9.05685C4.31272 9.07013 4.32365 9.07851 4.33121 9.09077C4.34309 9.11018 4.35545 9.12862 4.37129 9.14531C4.38857 9.1637 4.40772 9.1789 4.42824 9.1932C4.4394 9.20103 4.44659 9.21201 4.45847 9.21848L9.49847 11.9429C9.50639 11.9473 9.51551 11.9491 9.52379 11.9529C9.53351 11.9573 9.54288 11.9604 9.55332 11.9642C9.59328 11.9778 9.63495 11.9874 9.67707 11.9874C9.71919 11.9874 9.76086 11.9781 9.80082 11.9642C9.81126 11.9604 9.82027 11.9566 9.83035 11.9522C9.83863 11.9484 9.84774 11.9466 9.85566 11.9422L14.8957 9.21781C14.8978 9.21645 14.8991 9.21418 14.9013 9.21315C14.938 9.19238 14.9703 9.16569 14.9976 9.13334C15.0041 9.12551 15.0084 9.11658 15.0145 9.10806C15.0264 9.09138 15.0396 9.07592 15.0482 9.05685C15.0522 9.04799 15.0506 9.03877 15.0539 9.02958C15.0571 9.02072 15.064 9.0135 15.0665 9.0043C15.0698 8.99136 15.0668 8.97768 15.0686 8.96439C15.0719 8.94056 15.0736 8.91805 15.0714 8.89455C15.0696 8.87378 15.0645 8.85412 15.0588 8.83403C15.0519 8.81087 15.0447 8.78963 15.0328 8.76818C15.0277 8.75898 15.0266 8.74843 15.0208 8.73958L9.98082 1.24748C9.97614 1.24033 9.96653 1.23732 9.96113 1.23085C9.89561 1.14742 9.79587 1.08984 9.67707 1.08984ZM9.67707 1.9625V7.21974L13.9113 8.96639L9.67707 11.3063V7.21974L5.19957 8.68836L9.67707 1.9625ZM4.57941 10.2893C4.50008 10.3015 4.42517 10.3392 4.36847 10.3991C4.25543 10.5193 4.24658 10.698 4.34738 10.8274L9.38738 17.2979C9.39206 17.3037 9.39957 17.3057 9.40425 17.3112C9.42837 17.3388 9.45729 17.36 9.48933 17.379C9.50157 17.3865 9.51117 17.3959 9.52449 17.4016C9.57129 17.4224 9.62199 17.4362 9.67707 17.4362C9.73215 17.4362 9.78285 17.4224 9.82965 17.4016C9.84261 17.3959 9.85256 17.3862 9.8648 17.379C9.89684 17.36 9.92576 17.3388 9.94988 17.3112C9.95456 17.3057 9.96243 17.3037 9.96675 17.2979L15.0068 10.8274C15.1076 10.698 15.0991 10.5193 14.9857 10.3991C14.8726 10.2785 14.6857 10.2502 14.5385 10.3299L9.67707 12.9579L4.81566 10.3299C4.74222 10.2904 4.65875 10.2772 4.57941 10.2893ZM5.93715 11.7207L9.67707 13.7966V16.4578L5.93715 11.7207Z" fill="#1B1B1B"/>
</g>
<defs>
<clipPath id="clip0_255_15173">
<rect width="18" height="17.0275" fill="white" transform="translate(0.675781 0.75)"/>
</clipPath>
</defs>
</svg>
