<svg width="23" height="20" viewBox="0 0 23 20" fill="none" xmlns="http://www.w3.org/2000/svg">
<path d="M20.1643 3.11694C19.6536 2.6359 19.0472 2.25431 18.3797 1.99396C17.7122 1.73361 16.9968 1.59961 16.2743 1.59961C15.5519 1.59961 14.8364 1.73361 14.169 1.99396C13.5015 2.25431 12.8951 2.6359 12.3843 3.11694L11.3243 4.1148L10.2643 3.11694C9.23265 2.14573 7.83337 1.60011 6.37434 1.60011C4.9153 1.60011 3.51603 2.14573 2.48434 3.11694C1.45265 4.08815 0.873047 5.40539 0.873047 6.77889C0.873047 8.15238 1.45265 9.46963 2.48434 10.4408L3.54434 11.4387L11.3243 18.7626L19.1043 11.4387L20.1643 10.4408C20.6753 9.96002 21.0807 9.38914 21.3573 8.76082C21.6338 8.13249 21.7762 7.45902 21.7762 6.77889C21.7762 6.09876 21.6338 5.42529 21.3573 4.79696C21.0807 4.16863 20.6753 3.59775 20.1643 3.11694V3.11694Z" stroke="#1B1B1B" stroke-width="1.5" stroke-linecap="round" stroke-linejoin="round"/>
</svg>
